<svg width="75" height="12" viewBox="0 0 75 12" fill="none" xmlns="http://www.w3.org/2000/svg">
<g clip-path="url(#clip0_2001_414)">
<path d="M29.3999 4.17947C28.4011 4.17947 27.7689 4.69552 27.7689 5.37875C27.7689 5.93114 28.037 6.31394 28.9251 6.60225L30.0814 6.97535C31.5796 7.44295 32.1651 8.22308 32.1651 9.3739C32.1651 10.8857 30.8735 12.0002 29.1687 12.0002C28.1207 12.0002 27.1588 11.581 26.5732 11.0287V9.54107C27.1465 10.3212 28.192 10.8954 29.1564 10.8954C30.3003 10.8954 30.9965 10.2485 30.9965 9.44416C30.9965 8.77305 30.5709 8.33938 29.4614 7.99292L28.3765 7.64404C27.2572 7.28305 26.5978 6.55137 26.5978 5.40055C26.5978 3.99777 27.7418 3.07227 29.3753 3.07227C30.4233 3.07227 31.2745 3.50352 31.7149 4.05591V5.51927C31.1663 4.67856 30.3618 4.17463 29.3999 4.17463V4.17947Z" fill="#d9efe3"/>
<path d="M36.576 11.8549V11.1475C36.2218 11.6635 35.6018 12.0003 34.822 12.0003C33.7026 12.0003 32.9351 11.2323 32.9351 10.176C32.9351 9.27711 33.4714 8.72472 34.421 8.44852L35.5526 8.12387C36.2341 7.92035 36.4407 7.71684 36.4407 7.28317C36.4407 6.84949 36.0151 6.52726 35.2845 6.52726C34.5538 6.52726 33.6756 6.91006 33.0064 7.5957V6.28741C33.6288 5.74713 34.4308 5.43701 35.3681 5.43701C36.9032 5.43701 37.6954 6.24137 37.6954 7.66839V11.8549H36.576ZM36.576 9.61387V8.80951L35.0655 9.22865C34.3226 9.43217 34.0544 9.72048 34.0544 10.176C34.0544 10.6314 34.4087 11.0288 35.0655 11.0288C35.929 11.0288 36.576 10.394 36.576 9.61387Z" fill="#d9efe3"/>
<path d="M40.1581 3.22021V11.8574H39.0142V3.22021H40.1581Z" fill="#d9efe3"/>
<path d="M44.1189 12.0003C42.9012 12.0003 42.1705 11.1257 42.1705 9.75684V6.62662H40.7461L43.3169 4.10693V5.59452H45.1202V6.66296H43.3169V9.7205C43.3169 10.5249 43.6835 10.8955 44.2542 10.8955C44.6552 10.8955 44.9726 10.7647 45.2407 10.5249V11.712C44.9603 11.8792 44.5593 12.0003 44.1214 12.0003H44.1189Z" fill="#d9efe3"/>
<path d="M50.5789 5.59424L52.0279 10.212L53.2949 5.59424H54.4044L52.638 11.8547H51.5064L50.0328 7.12785L48.5592 11.8547H47.4275L45.6611 5.59424H46.7805L48.0351 10.212L49.4842 5.59424H50.5814H50.5789Z" fill="#d9efe3"/>
<path d="M58.5575 11.8549V11.1475C58.2032 11.6635 57.5833 12.0003 56.8034 12.0003C55.6841 12.0003 54.9165 11.2323 54.9165 10.176C54.9165 9.27711 55.4528 8.72472 56.4024 8.44852L57.5341 8.12387C58.2155 7.92035 58.4222 7.71684 58.4222 7.28317C58.4222 6.84949 57.9966 6.52726 57.2659 6.52726C56.5353 6.52726 55.657 6.91006 54.9878 7.5957V6.28741C55.6103 5.74713 56.4123 5.43701 57.3496 5.43701C58.8847 5.43701 59.6768 6.24137 59.6768 7.66839V11.8549H58.5575ZM58.5575 9.61387V8.80951L57.047 9.22865C56.304 9.43217 56.0359 9.72048 56.0359 10.176C56.0359 10.6314 56.3901 11.0288 57.047 11.0288C57.9129 11.0288 58.5575 10.394 58.5575 9.61387Z" fill="#d9efe3"/>
<path d="M63.5662 12.0003C62.3484 12.0003 61.6178 11.1257 61.6178 9.75684V6.62662H60.1934L62.7642 4.10693V5.59452H64.5675V6.66296H62.7642V9.7205C62.7642 10.5249 63.1307 10.8955 63.7015 10.8955C64.1025 10.8955 64.4199 10.7647 64.688 10.5249V11.712C64.4075 11.8792 64.0065 12.0003 63.5686 12.0003H63.5662Z" fill="#d9efe3"/>
<path d="M68.2945 12.0003C66.4199 12.0003 65.0791 10.6678 65.0791 8.72472C65.0791 6.78165 66.4789 5.43701 67.9771 5.43701C69.4753 5.43701 70.5479 6.67263 70.5479 8.49455V8.99849H66.164C66.2624 10.1856 67.1997 10.9173 68.3437 10.9173C69.281 10.9173 69.9526 10.5103 70.4274 9.94579V11.1935C70.051 11.5763 69.2096 11.9979 68.2969 11.9979L68.2945 12.0003ZM69.4753 7.98092C69.3425 7.04573 68.8185 6.50546 67.9771 6.50546C67.1358 6.50546 66.3805 7.09419 66.1985 7.98092H69.4753Z" fill="#d9efe3"/>
<path d="M71.667 5.59438H72.8109V6.32605C73.1996 5.73732 73.7113 5.48535 74.2477 5.48535C74.5896 5.48535 74.8332 5.58226 74.9906 5.71309V6.86391C74.7471 6.68462 74.5035 6.59983 74.1862 6.59983C73.3448 6.59983 72.8109 7.12799 72.8109 8.57923V11.8548H71.667V5.59438Z" fill="#d9efe3"/>
<path d="M21.3779 9.09752L19.9264 6.6069H18.2486L19.6337 8.98607H16.2313L18.1945 5.61599H15.2965L16.9202 2.82495H13.9656L15.6114 0H12.6691L11.0897 2.6917H8.49179L9.78335 0.470018H7.31831L5.9431 2.82011H8.26792L6.79185 5.35433H4.60972L5.59623 3.66081H3.92581L4.66138 2.38159H3.35506L2.55306 3.77953H3.71178L2.72035 5.48274H4.40061L3.20745 7.52514H1.69202L1.16309 6.61902H0.00683594L0.609565 7.65596H1.50505L3.95287 11.8595H18.5783L20.1872 9.09752H21.3779ZM13.754 2.95094L12.2853 5.48516H9.60376L11.0725 2.95094H13.754ZM3.94303 8.39976L3.51005 7.65596H5.59623L6.78692 5.61357H9.38973L7.76605 8.39976H3.94303ZM8.91247 9.89703L8.11539 8.52816H10.6493L12.273 5.74197H15.0824L13.1193 9.11205H16.0198L15.5622 9.89703H8.91739H8.91247Z" fill="#d9efe3"/>
</g>
<defs>
<clipPath id="clip0_2001_414">
<rect width="75" height="12" fill="white"/>
</clipPath>
</defs>
</svg>
